<?xml version="1.0" encoding="UTF-8"?>
<!-- Generator: Adobe Illustrator 19.1.0, SVG Export Plug-In . SVG Version: 6.00 Build 0)  -->
<svg version="1.1" id="Layer_1" xmlns="http://www.w3.org/2000/svg" xmlns:xlink="http://www.w3.org/1999/xlink" x="0px" y="0px" viewBox="898.2 -293.1 1620.1 1620" style="enable-background:new 898.2 -293.1 1620.1 1620;" xml:space="preserve">
<style type="text/css">
	.st0{fill:#3F5364;}
	.st1{fill:#F18B21;}
</style>
<g>
	<g>
		<g>
			<path class="st0" d="M1464.7,762.6c62.1,62.1,151.7,102.6,246.8,102.6V719.4c-56.7,0-105.8-21.6-143.6-59.4L1464.7,762.6z"/>
			<path class="st0" d="M1838.3,192.9l-54,135c43.2,16.2,78.3,48.6,103.1,86.4h157.1C2014.4,314.4,1935.5,230.7,1838.3,192.9z"/>
			<path class="st1" d="M1361.5,516.9c0,48.6,10.8,97.2,29.7,140.4l132.8-59.4c-10.8-24.3-16.2-51.3-16.2-81     c0-110.7,92.3-202.5,203-202.5V168.6C1518.7,168.6,1361.5,325.2,1361.5,516.9z"/>
			<path class="st1" d="M1783.8,705.9l54,135c100.4-37.8,176-121.5,208.4-224.1h-157.1C1865.3,657.3,1827.5,689.7,1783.8,705.9z"/>
		</g>
		<g>
			<path class="st0" d="M1710.9,881.4c-203,0-365.6-164.7-365.6-364.5s165.2-364.5,365.6-364.5c167.9,0,308.9,110.7,352.1,264.6     h140.9C2158,187.5,1955,14.7,1710.9,14.7c-279.2,0-503.8,224.1-503.8,502.2s224.6,502.2,503.8,502.2     c243.5,0,447.1-172.8,493-399.6H2063C2019.8,770.7,1878.8,881.4,1710.9,881.4z"/>
		</g>
		<g>
			<path class="st0" d="M1710.9-1.5L1710.9-1.5v-137.7l0,0c-279.2,0-517.3,172.8-612.4,418.5l127.5,48.6     C1301.6,136.2,1491.7-1.5,1710.9-1.5z"/>
			<path class="st0" d="M1710.9,1035.3V1173c327.8,0,601.6-240.3,650.2-553.5h-140.9C2174.2,857.1,1963.1,1035.3,1710.9,1035.3z"/>
			<path class="st1" d="M2222.8,417H2361c-35.1-232.2-197.6-426.6-412-510.3l-48.6,126.9C2063,98.4,2187.7,241.5,2222.8,417z"/>
			<path class="st1" d="M1190.9,516.9L1190.9,516.9h-138.3l0,0c0,275.4,170.6,513,414.7,610.2l51.3-126.9     C1326.4,921.9,1190.9,735.6,1190.9,516.9z"/>
		</g>
		<g>
			<path class="st0" d="M2377.3,417h138.2c-16.2-118.8-56.7-229.5-116.6-326.7l-116.6,72.9C2331.4,236.1,2363.8,322.5,2377.3,417z"/>
			<path class="st0" d="M898.2,517.4c4.3,167.9,35.6,270.5,71.8,349.9l133.9-55.1c-29.7-71.3-61.6-145.3-66.4-294.8"/>
			<path class="st1" d="M1710.9,1189.2c-186.8,0-354.8-75.6-476.8-197.1l-97.7,97.2c146.3,148.5,349.4,237.6,574.6,237.6     c414.7,0,756-310.5,807.3-710.1H2380C2328.7,940.8,2049.5,1189.2,1710.9,1189.2z"/>
			<path class="st1" d="M1710.9-155.4c151.7,0,290,48.6,403.4,135l84.2-110.7c-135.5-102.6-306.2-162-487.6-162     c-344,0-639.4,213.3-758.7,515.7l130.1,51.3C1180.1,22.8,1426.3-155.4,1710.9-155.4z"/>
		</g>
	</g>
</g>
</svg>